<?xml version="1.0" ?><!DOCTYPE svg  PUBLIC '-//W3C//DTD SVG 1.1//EN'  'http://www.w3.org/Graphics/SVG/1.1/DTD/svg11.dtd'><svg enable-background="new 0 0 512 512" height="512" id="Layer_1" overflow="visible" version="1.1" viewBox="0 0 512 512" width="512" xml:space="preserve" xmlns="http://www.w3.org/2000/svg" xmlns:xlink="http://www.w3.org/1999/xlink"><path d="M492.737,255.605c0,125.476-106.076,227.188-236.925,227.188  c-130.852,0-236.926-101.713-236.926-227.188c0-125.473,106.074-227.188,236.926-227.188  C386.661,28.417,492.737,130.133,492.737,255.605z" fill="#FFFFFF" stroke="#000000" stroke-width="32.3407"/><g><defs><path d="M468.139,256.351c0,112.706-95.286,204.074-212.82,204.074c-117.54,0-212.821-91.368-212.821-204.074    c0-112.701,95.281-204.074,212.821-204.074C372.853,52.276,468.139,143.649,468.139,256.351z" id="XMLID_1_"/></defs><clipPath id="XMLID_3_"><use xlink:href="#XMLID_1_"/></clipPath><path clip-path="url(#XMLID_3_)" d="M108.934,101.319l97.257,78.139l32.419-61.514   c0,0,4.158-14.962,19.121-15.794c12.853,0.941,25.816,1.189,38.623,2.142c8.326,0.618,10.557,7.911,9.589,15.316   c0,0-25.768-0.832-24.938,6.648l5.817,15.795l19.121,36.576l98.919-71.488l36.576,43.225L253.573,343.217L75.683,141.22   L108.934,101.319z" stroke="#000000" stroke-width="3.325"/><polyline clip-path="url(#XMLID_3_)" points="56.193,137.158 106.994,199.779   30.687,266.761  " stroke="#000000" stroke-width="3.325"/><polyline clip-path="url(#XMLID_3_)" points="31.184,278.558 112.318,205.621   148.438,248.693 50.755,354.521  " stroke="#000000" stroke-width="3.325"/><polyline clip-path="url(#XMLID_3_)" points="52.694,364.443 154.439,255.178   188.831,295.803 88.563,428.313  " stroke="#000000" stroke-width="3.325"/><polyline clip-path="url(#XMLID_3_)" fill="none" points="56.193,137.158 106.994,199.779   30.687,266.761  " stroke="#000000" stroke-width="3.325"/><polyline clip-path="url(#XMLID_3_)" fill="none" points="31.184,278.558 112.318,205.621   148.438,248.693 50.755,354.521  " stroke="#000000" stroke-width="3.325"/><polyline clip-path="url(#XMLID_3_)" fill="none" points="52.694,364.443 154.439,255.178   188.831,295.803 88.563,428.313  " stroke="#000000" stroke-width="3.325"/><polyline clip-path="url(#XMLID_3_)" points="461.77,147.935 403.989,210.188   477.369,279.298  " stroke="#000000" stroke-width="3.325"/><polyline clip-path="url(#XMLID_3_)" points="477.924,292.481 396.467,218.008   359.685,257.925 456.107,368.867  " stroke="#000000" stroke-width="3.325"/><polyline clip-path="url(#XMLID_3_)" points="450.068,373.583 353.566,264.3   320.256,301.049 411.194,440.866  " stroke="#000000" stroke-width="3.325"/><polyline clip-path="url(#XMLID_3_)" fill="none" points="459.68,149.841 401.899,212.096   475.28,281.204  " stroke="#000000" stroke-width="3.325"/><polyline clip-path="url(#XMLID_3_)" fill="none" points="477.924,292.481 396.467,218.008   359.685,257.925 456.107,368.867  " stroke="#000000" stroke-width="3.325"/><polyline clip-path="url(#XMLID_3_)" fill="none" points="450.068,373.583 353.566,264.3   320.256,301.049 411.194,440.866  " stroke="#000000" stroke-width="3.325"/><path clip-path="url(#XMLID_3_)" d="M299.293,319.291l-46.552,45.72l-41.561-48.214   L110.597,460.605c0,0,140.484,101.415,281.797,1.661L299.293,319.291z" stroke="#000000" stroke-width="3.325"/><path clip-path="url(#XMLID_3_)" d="M299.293,319.291l-46.552,45.72l-41.561-48.214   L110.597,460.605c0,0,140.484,101.415,281.797,1.661L299.293,319.291z" stroke="#000000" stroke-width="3.325"/><path clip-path="url(#XMLID_3_)" d="M299.293,319.291l-46.552,45.72l-41.561-48.214L110.597,460.605   c0,0,140.484,101.415,281.797,1.661L299.293,319.291z" fill="none" stroke="#000000"/><path clip-path="url(#XMLID_3_)" d="M299.293,319.291l-46.552,45.72   l-41.561-48.214L110.597,460.605c0,0,140.484,101.415,281.797,1.661L299.293,319.291z" fill="none" stroke="#000000" stroke-width="3.325"/></g></svg>